<svg width="34" height="34" viewBox="0 0 34 34" fill="none" xmlns="http://www.w3.org/2000/svg">
<path d="M16.875 0C13.5374 0 10.2748 0.989702 7.49976 2.84395C4.72468 4.6982 2.56177 7.33371 1.28454 10.4172C0.0073117 13.5007 -0.32687 16.8937 0.324256 20.1671C0.975382 23.4406 2.58257 26.4474 4.94258 28.8074C7.30259 31.1674 10.3094 32.7746 13.5829 33.4258C16.8563 34.0769 20.2493 33.7427 23.3328 32.4655C26.4163 31.1882 29.0518 29.0253 30.9061 26.2502C32.7603 23.4752 33.75 20.2126 33.75 16.875C33.745 12.401 31.9656 8.11166 28.802 4.94805C25.6384 1.78445 21.349 0.00496285 16.875 0ZM28.1063 23.6594H24.3563L22.8281 21.5625L24.5938 16.4156L27.0547 15.625L29.9609 17.8531C29.8103 19.9079 29.1747 21.8977 28.1063 23.6594ZM3.78907 17.8453L6.69532 15.625L9.15626 16.4234L10.9219 21.5625L9.39845 23.6594H5.64845C4.5772 21.8958 3.93993 19.9032 3.78907 17.8453ZM14.3516 20L12.8609 15.6609L16.875 12.9L20.8891 15.6609L19.3984 20H14.3516ZM26.9547 8.47969L25.8953 12.05L23.425 12.8531L18.75 9.63906V7.10312L22.0656 4.82344C23.9593 5.64233 25.634 6.89475 26.9547 8.47969ZM11.6844 4.82344L15 7.10312V9.63906L10.325 12.8531L7.85469 12.05L6.79532 8.47969C8.11606 6.89475 9.79076 5.64233 11.6844 4.82344ZM13.8063 29.6344L12.4594 25.8266L13.9672 23.75H19.7828L21.2906 25.8266L19.9438 29.6344C17.927 30.1219 15.823 30.1219 13.8063 29.6344Z" fill="white"/>
</svg>
