<svg width="64" height="64" viewBox="0 0 64 64" fill="none" xmlns="http://www.w3.org/2000/svg">
<g clip-path="url(#clip0_177_1611)">
<path d="M18 9.97V54.03C18.0065 54.3816 18.1056 54.7252 18.2874 55.0263C18.4691 55.3274 18.7269 55.5752 19.035 55.7448C19.343 55.9144 19.6904 55.9998 20.0419 55.9924C20.3935 55.985 20.7369 55.885 21.0375 55.7025L57.0575 33.6725C57.3452 33.4984 57.5832 33.2529 57.7483 32.9599C57.9134 32.667 58.0002 32.3363 58.0002 32C58.0002 31.6637 57.9134 31.333 57.7483 31.0401C57.5832 30.7471 57.3452 30.5016 57.0575 30.3275L21.0375 8.2975C20.7369 8.11502 20.3935 8.01502 20.0419 8.00759C19.6904 8.00016 19.343 8.08555 19.035 8.25517C18.7269 8.42478 18.4691 8.67262 18.2874 8.97368C18.1056 9.27475 18.0065 9.61841 18 9.97Z" stroke="#F7F9FC" stroke-width="3" stroke-linecap="round" stroke-linejoin="round"/>
</g>
<defs>
<clipPath id="clip0_177_1611">
<rect width="64" height="64" fill="white"/>
</clipPath>
</defs>
</svg>
