<svg width="44" height="38" viewBox="0 0 44 38" fill="none" xmlns="http://www.w3.org/2000/svg">
<path d="M41.25 4.2327e-07H27.75C26.6255 -0.000360346 25.5128 0.229906 24.4808 0.676569C23.4488 1.12323 22.5194 1.7768 21.75 2.59688C20.9806 1.7768 20.0512 1.12323 19.0192 0.676569C17.9872 0.229906 16.8745 -0.000360346 15.75 4.2327e-07H2.25C1.65326 4.2327e-07 1.08097 0.237053 0.65901 0.65901C0.237053 1.08097 0 1.65326 0 2.25V29.25C0 29.8467 0.237053 30.419 0.65901 30.841C1.08097 31.2629 1.65326 31.5 2.25 31.5H15.75C16.7446 31.5 17.6984 31.8951 18.4017 32.5983C19.1049 33.3016 19.5 34.2554 19.5 35.25C19.5 35.8467 19.7371 36.419 20.159 36.841C20.581 37.2629 21.1533 37.5 21.75 37.5C22.3467 37.5 22.919 37.2629 23.341 36.841C23.7629 36.419 24 35.8467 24 35.25C24 34.2554 24.3951 33.3016 25.0983 32.5983C25.8016 31.8951 26.7554 31.5 27.75 31.5H41.25C41.8467 31.5 42.419 31.2629 42.841 30.841C43.2629 30.419 43.5 29.8467 43.5 29.25V2.25C43.5 1.65326 43.2629 1.08097 42.841 0.65901C42.419 0.237053 41.8467 4.2327e-07 41.25 4.2327e-07ZM15.75 27H4.5V4.5H15.75C16.7446 4.5 17.6984 4.89509 18.4017 5.59835C19.1049 6.30161 19.5 7.25544 19.5 8.25V27.9019C18.3393 27.3078 17.0539 26.9986 15.75 27ZM39 27H27.75C26.4457 26.9992 25.1601 27.3097 24 27.9056V8.25C24 7.25544 24.3951 6.30161 25.0983 5.59835C25.8016 4.89509 26.7554 4.5 27.75 4.5H39V27Z" fill="white"/>
</svg>
